<?xml version="1.0" standalone="no"?><!DOCTYPE svg PUBLIC "-//W3C//DTD SVG 1.1//EN" "http://www.w3.org/Graphics/SVG/1.1/DTD/svg11.dtd"><svg t="1590240933427" class="icon" viewBox="0 0 1024 1024" version="1.1" xmlns="http://www.w3.org/2000/svg" p-id="935" xmlns:xlink="http://www.w3.org/1999/xlink" width="200" height="200"><defs><style type="text/css"></style></defs><path d="M502.253 568.427c60.238-4.431 116.268-30.003 159.416-73.128 47.635-47.609 73.868-110.909 73.868-178.239 0-67.331-26.233-130.631-73.868-178.239C614.039 91.217 550.713 65 483.356 65s-130.683 26.217-178.313 73.821c-47.635 47.608-73.868 110.909-73.868 178.239s26.233 130.63 73.868 178.239c14.713 14.705 30.927 27.362 48.292 37.844-56.031 19.527-107.876 50.568-152.281 91.859C121.057 699.389 72.415 800.12 64.088 908.643c-1.268 16.52 11.097 30.939 27.617 32.207 0.782 0.06 1.557 0.09 2.328 0.09 15.526 0 28.672-11.968 29.88-27.707 7.17-93.444 49.077-180.202 118-244.291 69.28-64.421 159.582-99.899 254.271-99.899a30.184 30.184 0 0 0 6.069-0.616zM291.175 317.06c0-105.902 86.212-192.06 192.181-192.06s192.181 86.158 192.181 192.06-86.212 192.06-192.181 192.06-192.181-86.158-192.181-192.06zM959.999 783.727c0-0.161-0.008-0.322-0.01-0.483-0.078-5.123-1.457-10.223-4.148-14.748l-0.035-0.057a29.852 29.852 0 0 0-4.585-5.882L803.388 615.202c-11.667-11.63-30.72-11.671-42.338-0.09l-0.004 0.004c-11.622 11.584-11.582 30.581 0.09 42.215l96.702 96.391H477.965c-16.448 0-29.906 13.458-29.906 29.906v0.198c0 16.448 13.457 29.906 29.906 29.906h379.873l-96.702 96.39c-11.672 11.634-11.712 30.631-0.09 42.215l0.004 0.004c11.618 11.581 30.671 11.54 42.338-0.09L951.22 804.896a29.905 29.905 0 0 0 3.87-4.74c3.185-4.812 4.813-10.366 4.899-15.946 0.002-0.161 0.01-0.322 0.01-0.483z" p-id="936"></path></svg>